# This file uses centimeters as units for non-parametric coordinates.

mtllib Ball3DLo.mtl
g default
v 0.927216 -0.222521 -0.301270
v 0.788734 -0.222521 -0.573048
v 0.573048 -0.222521 -0.788734
v 0.301270 -0.222521 -0.927216
v 0.000000 -0.222521 -0.974930
v -0.301270 -0.222521 -0.927216
v -0.573048 -0.222521 -0.788734
v -0.788734 -0.222521 -0.573048
v -0.927216 -0.222521 -0.301270
v -0.974930 -0.222521 0.000000
v -0.927216 -0.222521 0.301270
v -0.788734 -0.222521 0.573048
v -0.573048 -0.222521 0.788734
v -0.301270 -0.222521 0.927216
v 0.000000 -0.222521 0.974930
v 0.301270 -0.222521 0.927216
v 0.573048 -0.222521 0.788734
v 0.788734 -0.222521 0.573048
v 0.927216 -0.222521 0.301270
v 0.974930 -0.222521 0.000000
v 0.927216 0.222521 -0.301270
v 0.788734 0.222521 -0.573048
v 0.573048 0.222521 -0.788734
v 0.301270 0.222521 -0.927216
v 0.000000 0.222521 -0.974930
v -0.301270 0.222521 -0.927216
v -0.573048 0.222521 -0.788734
v -0.788734 0.222521 -0.573048
v -0.927216 0.222521 -0.301270
v -0.974930 0.222521 0.000000
v -0.927216 0.222521 0.301270
v -0.788734 0.222521 0.573048
v -0.573048 0.222521 0.788734
v -0.301270 0.222521 0.927216
v 0.000000 0.222521 0.974930
v 0.301270 0.222521 0.927216
v 0.573048 0.222521 0.788734
v 0.788734 0.222521 0.573048
v 0.927216 0.222521 0.301270
v 0.974930 0.222521 0.000000
v 0.743568 0.623489 -0.241598
v 0.632515 0.623489 -0.459549
v 0.459549 0.623489 -0.632515
v 0.241598 0.623489 -0.743568
v 0.000000 0.623489 -0.781830
v -0.241598 0.623489 -0.743568
v -0.459549 0.623489 -0.632515
v -0.632515 0.623489 -0.459549
v -0.743568 0.623489 -0.241598
v -0.781830 0.623489 0.000000
v -0.743568 0.623489 0.241598
v -0.632515 0.623489 0.459549
v -0.459549 0.623489 0.632515
v -0.241598 0.623489 0.743568
v 0.000000 0.623489 0.781830
v 0.241598 0.623489 0.743568
v 0.459549 0.623489 0.632515
v 0.632515 0.623489 0.459549
v 0.743568 0.623489 0.241598
v 0.781830 0.623489 0.000000
v 0.412647 0.900970 -0.134078
v 0.351021 0.900970 -0.255032
v 0.255032 0.900970 -0.351021
v 0.134078 0.900970 -0.412647
v 0.000000 0.900970 -0.433884
v -0.134078 0.900970 -0.412647
v -0.255032 0.900970 -0.351021
v -0.351021 0.900970 -0.255032
v -0.412647 0.900970 -0.134077
v -0.433884 0.900970 0.000000
v -0.412647 0.900970 0.134077
v -0.351021 0.900970 0.255032
v -0.255032 0.900970 0.351021
v -0.134077 0.900970 0.412647
v 0.000000 0.900970 0.433884
v 0.134077 0.900970 0.412647
v 0.255030 0.900970 0.351021
v 0.351021 0.900970 0.255030
v 0.412647 0.900970 0.134077
v 0.433884 0.900970 0.000000
v 0.000000 1.000000 0.000000
vt 0.803510 0.897209
vt 0.722047 0.933825
vt 0.681703 0.816213
vt 0.755982 0.781510
vt 0.635501 0.963163
vt 0.607761 0.842505
vt 0.544869 0.982287
vt 0.528680 0.860099
vt 0.451585 0.990000
vt 0.451239 0.867452
vt 0.357148 0.985585
vt 0.369524 0.864362
vt 0.263305 0.968519
vt 0.291525 0.850561
vt 0.172291 0.938690
vt 0.212507 0.824348
vt 0.086984 0.897209
vt 0.139472 0.786019
vt 0.010000 0.848658
vt 0.072166 0.734108
vt 0.879766 0.448257
vt 0.800338 0.482043
vt 0.758319 0.364232
vt 0.833713 0.331064
vt 0.717239 0.514776
vt 0.682486 0.395393
vt 0.629406 0.540000
vt 0.607386 0.418169
vt 0.537973 0.554830
vt 0.527564 0.432015
vt 0.444429 0.558136
vt 0.449862 0.435707
vt 0.350305 0.549273
vt 0.368384 0.428768
vt 0.257371 0.527801
vt 0.291122 0.411305
vt 0.167865 0.493713
vt 0.213429 0.381395
vt 0.084609 0.448257
vt 0.142282 0.339666
vt 0.010000 0.396130
vt 0.077499 0.284639
vt 0.881256 0.859715
vt 0.829728 0.744824
vt 0.635377 0.695566
vt 0.696720 0.668652
vt 0.575434 0.715821
vt 0.512061 0.729929
vt 0.451035 0.736210
vt 0.386752 0.734641
vt 0.326014 0.725311
vt 0.264124 0.706351
vt 0.206809 0.678023
vt 0.156117 0.635079
vt 0.704444 0.248704
vt 0.765660 0.219928
vt 0.641900 0.272695
vt 0.581068 0.290102
vt 0.517100 0.301206
vt 0.455846 0.304602
vt 0.391709 0.300003
vt 0.331478 0.287821
vt 0.270551 0.265964
vt 0.214636 0.234965
vt 0.166025 0.189679
vt 0.756511 0.637021
vt 0.585144 0.585816
vt 0.626202 0.567532
vt 0.541053 0.600197
vt 0.495450 0.609813
vt 0.449447 0.614133
vt 0.403990 0.612940
vt 0.360010 0.606266
vt 0.318589 0.594248
vt 0.281409 0.576595
vt 0.251451 0.552074
vt 0.638771 0.144372
vt 0.675231 0.124284
vt 0.596896 0.160700
vt 0.552176 0.172985
vt 0.506170 0.180440
vt 0.460015 0.182586
vt 0.414665 0.179251
vt 0.371049 0.170510
vt 0.330240 0.156553
vt 0.293935 0.137167
vt 0.265166 0.111260
vt 0.661674 0.545746
vt 0.781554 0.050046
vt 0.812685 0.027428
vt 0.868523 0.137014
vt 0.849282 0.015537
vt 0.887763 0.015537
vt 0.924360 0.027428
vt 0.955491 0.050046
vt 0.978109 0.081177
vt 0.990000 0.117774
vt 0.990000 0.156254
vt 0.978109 0.192851
vt 0.955491 0.223982
vt 0.924360 0.246601
vt 0.887763 0.258492
vt 0.849282 0.258492
vt 0.812686 0.246601
vt 0.781555 0.223983
vt 0.758936 0.192851
vt 0.747045 0.156254
vt 0.747045 0.117774
vt 0.758936 0.081177
vn 0.951057 0.000000 -0.309015
vn 0.809018 0.000000 -0.587784
vn 0.788686 0.222779 -0.573013
vn 0.927156 0.222778 -0.301250
vn 0.809018 0.000000 -0.587784
vn 0.587784 0.000000 -0.809018
vn 0.573013 0.222779 -0.788686
vn 0.788686 0.222779 -0.573013
vn 0.587784 0.000000 -0.809018
vn 0.309015 0.000000 -0.951057
vn 0.301250 0.222778 -0.927156
vn 0.573013 0.222779 -0.788686
vn 0.309015 0.000000 -0.951057
vn 0.000000 0.000000 -1.000000
vn 0.000000 0.222778 -0.974869
vn 0.301250 0.222778 -0.927156
vn 0.000000 0.000000 -1.000000
vn -0.309016 0.000000 -0.951057
vn -0.301251 0.222778 -0.927156
vn 0.000000 0.222778 -0.974869
vn -0.309016 0.000000 -0.951057
vn -0.587786 0.000000 -0.809017
vn -0.573014 0.222778 -0.788685
vn -0.301251 0.222778 -0.927156
vn -0.587786 0.000000 -0.809017
vn -0.809017 0.000000 -0.587785
vn -0.788686 0.222778 -0.573014
vn -0.573014 0.222778 -0.788685
vn -0.809017 0.000000 -0.587785
vn -0.951057 0.000000 -0.309017
vn -0.927156 0.222778 -0.301252
vn -0.788686 0.222778 -0.573014
vn -0.951057 0.000000 -0.309017
vn -1.000000 0.000000 0.000000
vn -0.974869 0.222778 0.000000
vn -0.927156 0.222778 -0.301252
vn -1.000000 0.000000 0.000000
vn -0.951057 0.000000 0.309017
vn -0.927156 0.222778 0.301252
vn -0.974869 0.222778 0.000000
vn -0.951057 0.000000 0.309017
vn -0.809016 0.000000 0.587786
vn -0.788685 0.222778 0.573014
vn -0.927156 0.222778 0.301252
vn -0.809016 0.000000 0.587786
vn -0.587786 0.000000 0.809016
vn -0.573014 0.222777 0.788686
vn -0.788685 0.222778 0.573014
vn -0.587786 0.000000 0.809016
vn -0.309017 0.000000 0.951057
vn -0.301252 0.222778 0.927155
vn -0.573014 0.222777 0.788686
vn -0.309017 0.000000 0.951057
vn 0.000000 0.000000 1.000000
vn 0.000000 0.222778 0.974869
vn -0.301252 0.222778 0.927155
vn 0.000000 0.000000 1.000000
vn 0.309017 0.000000 0.951057
vn 0.301252 0.222778 0.927155
vn 0.000000 0.222778 0.974869
vn 0.309017 0.000000 0.951057
vn 0.587786 0.000000 0.809016
vn 0.573014 0.222778 0.788685
vn 0.301252 0.222778 0.927155
vn 0.587786 0.000000 0.809016
vn 0.809016 0.000000 0.587786
vn 0.788685 0.222778 0.573014
vn 0.573014 0.222778 0.788685
vn 0.809016 0.000000 0.587786
vn 0.951057 0.000000 0.309017
vn 0.927156 0.222778 0.301252
vn 0.788685 0.222778 0.573014
vn 0.951057 0.000000 0.309017
vn 1.000000 0.000000 0.000000
vn 0.974869 0.222778 0.000000
vn 0.927156 0.222778 0.301252
vn 1.000000 0.000000 0.000000
vn 0.951057 0.000000 -0.309015
vn 0.927156 0.222778 -0.301250
vn 0.974869 0.222778 0.000000
vn 0.927156 0.222778 -0.301250
vn 0.788686 0.222779 -0.573013
vn 0.632214 0.623956 -0.459330
vn 0.743212 0.623956 -0.241484
vn 0.788686 0.222779 -0.573013
vn 0.573013 0.222779 -0.788686
vn 0.459330 0.623956 -0.632214
vn 0.632214 0.623956 -0.459330
vn 0.573013 0.222779 -0.788686
vn 0.301250 0.222778 -0.927156
vn 0.241484 0.623956 -0.743212
vn 0.459330 0.623956 -0.632214
vn 0.301250 0.222778 -0.927156
vn 0.000000 0.222778 -0.974869
vn 0.000000 0.623956 -0.781459
vn 0.241484 0.623956 -0.743212
vn 0.000000 0.222778 -0.974869
vn -0.301251 0.222778 -0.927156
vn -0.241484 0.623956 -0.743212
vn 0.000000 0.623956 -0.781459
vn -0.301251 0.222778 -0.927156
vn -0.573014 0.222778 -0.788685
vn -0.459331 0.623956 -0.632214
vn -0.241484 0.623956 -0.743212
vn -0.573014 0.222778 -0.788685
vn -0.788686 0.222778 -0.573014
vn -0.632214 0.623956 -0.459330
vn -0.459331 0.623956 -0.632214
vn -0.788686 0.222778 -0.573014
vn -0.927156 0.222778 -0.301252
vn -0.743212 0.623956 -0.241485
vn -0.632214 0.623956 -0.459330
vn -0.927156 0.222778 -0.301252
vn -0.974869 0.222778 0.000000
vn -0.781459 0.623956 0.000000
vn -0.743212 0.623956 -0.241485
vn -0.974869 0.222778 0.000000
vn -0.927156 0.222778 0.301252
vn -0.743212 0.623956 0.241485
vn -0.781459 0.623956 0.000000
vn -0.927156 0.222778 0.301252
vn -0.788685 0.222778 0.573014
vn -0.632214 0.623956 0.459331
vn -0.743212 0.623956 0.241485
vn -0.788685 0.222778 0.573014
vn -0.573014 0.222777 0.788686
vn -0.459331 0.623956 0.632214
vn -0.632214 0.623956 0.459331
vn -0.573014 0.222777 0.788686
vn -0.301252 0.222778 0.927155
vn -0.241485 0.623956 0.743212
vn -0.459331 0.623956 0.632214
vn -0.301252 0.222778 0.927155
vn 0.000000 0.222778 0.974869
vn 0.000000 0.623956 0.781459
vn -0.241485 0.623956 0.743212
vn 0.000000 0.222778 0.974869
vn 0.301252 0.222778 0.927155
vn 0.241485 0.623956 0.743212
vn 0.000000 0.623956 0.781459
vn 0.301252 0.222778 0.927155
vn 0.573014 0.222778 0.788685
vn 0.459331 0.623956 0.632214
vn 0.241485 0.623956 0.743212
vn 0.573014 0.222778 0.788685
vn 0.788685 0.222778 0.573014
vn 0.632214 0.623956 0.459331
vn 0.459331 0.623956 0.632214
vn 0.788685 0.222778 0.573014
vn 0.927156 0.222778 0.301252
vn 0.743212 0.623956 0.241485
vn 0.632214 0.623956 0.459331
vn 0.927156 0.222778 0.301252
vn 0.974869 0.222778 0.000000
vn 0.781459 0.623956 0.000000
vn 0.743212 0.623956 0.241485
vn 0.974869 0.222778 0.000000
vn 0.927156 0.222778 -0.301250
vn 0.743212 0.623956 -0.241484
vn 0.781459 0.623956 0.000000
vn 0.743212 0.623956 -0.241484
vn 0.632214 0.623956 -0.459330
vn 0.350668 0.901178 -0.254774
vn 0.412234 0.901178 -0.133943
vn 0.632214 0.623956 -0.459330
vn 0.459330 0.623956 -0.632214
vn 0.254774 0.901178 -0.350668
vn 0.350668 0.901178 -0.254774
vn 0.459330 0.623956 -0.632214
vn 0.241484 0.623956 -0.743212
vn 0.133943 0.901178 -0.412234
vn 0.254774 0.901178 -0.350668
vn 0.241484 0.623956 -0.743212
vn 0.000000 0.623956 -0.781459
vn 0.000000 0.901179 -0.433448
vn 0.133943 0.901178 -0.412234
vn 0.000000 0.623956 -0.781459
vn -0.241484 0.623956 -0.743212
vn -0.133943 0.901178 -0.412234
vn 0.000000 0.901179 -0.433448
vn -0.241484 0.623956 -0.743212
vn -0.459331 0.623956 -0.632214
vn -0.254775 0.901178 -0.350667
vn -0.133943 0.901178 -0.412234
vn -0.459331 0.623956 -0.632214
vn -0.632214 0.623956 -0.459330
vn -0.350667 0.901178 -0.254775
vn -0.254775 0.901178 -0.350667
vn -0.632214 0.623956 -0.459330
vn -0.743212 0.623956 -0.241485
vn -0.412234 0.901178 -0.133943
vn -0.350667 0.901178 -0.254775
vn -0.743212 0.623956 -0.241485
vn -0.781459 0.623956 0.000000
vn -0.433448 0.901179 0.000000
vn -0.412234 0.901178 -0.133943
vn -0.781459 0.623956 0.000000
vn -0.743212 0.623956 0.241485
vn -0.412234 0.901178 0.133943
vn -0.433448 0.901179 0.000000
vn -0.743212 0.623956 0.241485
vn -0.632214 0.623956 0.459331
vn -0.350667 0.901178 0.254775
vn -0.412234 0.901178 0.133943
vn -0.632214 0.623956 0.459331
vn -0.459331 0.623956 0.632214
vn -0.254775 0.901178 0.350667
vn -0.350667 0.901178 0.254775
vn -0.459331 0.623956 0.632214
vn -0.241485 0.623956 0.743212
vn -0.133943 0.901178 0.412234
vn -0.254775 0.901178 0.350667
vn -0.241485 0.623956 0.743212
vn 0.000000 0.623956 0.781459
vn 0.000000 0.901179 0.433448
vn -0.133943 0.901178 0.412234
vn 0.000000 0.623956 0.781459
vn 0.241485 0.623956 0.743212
vn 0.133944 0.901178 0.412234
vn 0.000000 0.901179 0.433448
vn 0.241485 0.623956 0.743212
vn 0.459331 0.623956 0.632214
vn 0.254775 0.901178 0.350667
vn 0.133944 0.901178 0.412234
vn 0.459331 0.623956 0.632214
vn 0.632214 0.623956 0.459331
vn 0.350667 0.901178 0.254775
vn 0.254775 0.901178 0.350667
vn 0.632214 0.623956 0.459331
vn 0.743212 0.623956 0.241485
vn 0.412234 0.901178 0.133944
vn 0.350667 0.901178 0.254775
vn 0.743212 0.623956 0.241485
vn 0.781459 0.623956 0.000000
vn 0.433448 0.901179 0.000000
vn 0.412234 0.901178 0.133944
vn 0.781459 0.623956 0.000000
vn 0.743212 0.623956 -0.241484
vn 0.412234 0.901178 -0.133943
vn 0.433448 0.901179 0.000000
vn 0.412234 0.901178 -0.133943
vn 0.350668 0.901178 -0.254774
vn 0.000000 1.000000 0.000000
vn 0.350668 0.901178 -0.254774
vn 0.254774 0.901178 -0.350668
vn 0.000000 1.000000 0.000000
vn 0.254774 0.901178 -0.350668
vn 0.133943 0.901178 -0.412234
vn 0.000000 1.000000 0.000000
vn 0.133943 0.901178 -0.412234
vn 0.000000 0.901179 -0.433448
vn 0.000000 1.000000 0.000000
vn 0.000000 0.901179 -0.433448
vn -0.133943 0.901178 -0.412234
vn 0.000000 1.000000 0.000000
vn -0.133943 0.901178 -0.412234
vn -0.254775 0.901178 -0.350667
vn 0.000000 1.000000 0.000000
vn -0.254775 0.901178 -0.350667
vn -0.350667 0.901178 -0.254775
vn 0.000000 1.000000 0.000000
vn -0.350667 0.901178 -0.254775
vn -0.412234 0.901178 -0.133943
vn 0.000000 1.000000 0.000000
vn -0.412234 0.901178 -0.133943
vn -0.433448 0.901179 0.000000
vn 0.000000 1.000000 0.000000
vn -0.433448 0.901179 0.000000
vn -0.412234 0.901178 0.133943
vn 0.000000 1.000000 0.000000
vn -0.412234 0.901178 0.133943
vn -0.350667 0.901178 0.254775
vn 0.000000 1.000000 0.000000
vn -0.350667 0.901178 0.254775
vn -0.254775 0.901178 0.350667
vn 0.000000 1.000000 0.000000
vn -0.254775 0.901178 0.350667
vn -0.133943 0.901178 0.412234
vn 0.000000 1.000000 0.000000
vn -0.133943 0.901178 0.412234
vn 0.000000 0.901179 0.433448
vn 0.000000 1.000000 0.000000
vn 0.000000 0.901179 0.433448
vn 0.133944 0.901178 0.412234
vn 0.000000 1.000000 0.000000
vn 0.133944 0.901178 0.412234
vn 0.254775 0.901178 0.350667
vn 0.000000 1.000000 0.000000
vn 0.254775 0.901178 0.350667
vn 0.350667 0.901178 0.254775
vn 0.000000 1.000000 0.000000
vn 0.350667 0.901178 0.254775
vn 0.412234 0.901178 0.133944
vn 0.000000 1.000000 0.000000
vn 0.412234 0.901178 0.133944
vn 0.433448 0.901179 0.000000
vn 0.000000 1.000000 0.000000
vn 0.433448 0.901179 0.000000
vn 0.412234 0.901178 -0.133943
vn 0.000000 1.000000 0.000000
s off
g Ball3DLo_Ball3DLo_pSphere1
usemtl Ball3DLo_Ball3DLo_initialShadingGroup
f 1/1/1 2/2/2 22/3/3 21/4/4
f 2/2/5 3/5/6 23/6/7 22/3/8
f 3/5/9 4/7/10 24/8/11 23/6/12
f 4/7/13 5/9/14 25/10/15 24/8/16
f 5/9/17 6/11/18 26/12/19 25/10/20
f 6/11/21 7/13/22 27/14/23 26/12/24
f 7/13/25 8/15/26 28/16/27 27/14/28
f 8/15/29 9/17/30 29/18/31 28/16/32
f 9/17/33 10/19/34 30/20/35 29/18/36
f 10/21/37 11/22/38 31/23/39 30/24/40
f 11/22/41 12/25/42 32/26/43 31/23/44
f 12/25/45 13/27/46 33/28/47 32/26/48
f 13/27/49 14/29/50 34/30/51 33/28/52
f 14/29/53 15/31/54 35/32/55 34/30/56
f 15/31/57 16/33/58 36/34/59 35/32/60
f 16/33/61 17/35/62 37/36/63 36/34/64
f 17/35/65 18/37/66 38/38/67 37/36/68
f 18/37/69 19/39/70 39/40/71 38/38/72
f 19/39/73 20/41/74 40/42/75 39/40/76
f 20/43/77 1/1/78 21/4/79 40/44/80
f 21/4/81 22/3/82 42/45/83 41/46/84
f 22/3/85 23/6/86 43/47/87 42/45/88
f 23/6/89 24/8/90 44/48/91 43/47/92
f 24/8/93 25/10/94 45/49/95 44/48/96
f 25/10/97 26/12/98 46/50/99 45/49/100
f 26/12/101 27/14/102 47/51/103 46/50/104
f 27/14/105 28/16/106 48/52/107 47/51/108
f 28/16/109 29/18/110 49/53/111 48/52/112
f 29/18/113 30/20/114 50/54/115 49/53/116
f 30/24/117 31/23/118 51/55/119 50/56/120
f 31/23/121 32/26/122 52/57/123 51/55/124
f 32/26/125 33/28/126 53/58/127 52/57/128
f 33/28/129 34/30/130 54/59/131 53/58/132
f 34/30/133 35/32/134 55/60/135 54/59/136
f 35/32/137 36/34/138 56/61/139 55/60/140
f 36/34/141 37/36/142 57/62/143 56/61/144
f 37/36/145 38/38/146 58/63/147 57/62/148
f 38/38/149 39/40/150 59/64/151 58/63/152
f 39/40/153 40/42/154 60/65/155 59/64/156
f 40/44/157 21/4/158 41/46/159 60/66/160
f 41/46/161 42/45/162 62/67/163 61/68/164
f 42/45/165 43/47/166 63/69/167 62/67/168
f 43/47/169 44/48/170 64/70/171 63/69/172
f 44/48/173 45/49/174 65/71/175 64/70/176
f 45/49/177 46/50/178 66/72/179 65/71/180
f 46/50/181 47/51/182 67/73/183 66/72/184
f 47/51/185 48/52/186 68/74/187 67/73/188
f 48/52/189 49/53/190 69/75/191 68/74/192
f 49/53/193 50/54/194 70/76/195 69/75/196
f 50/56/197 51/55/198 71/77/199 70/78/200
f 51/55/201 52/57/202 72/79/203 71/77/204
f 52/57/205 53/58/206 73/80/207 72/79/208
f 53/58/209 54/59/210 74/81/211 73/80/212
f 54/59/213 55/60/214 75/82/215 74/81/216
f 55/60/217 56/61/218 76/83/219 75/82/220
f 56/61/221 57/62/222 77/84/223 76/83/224
f 57/62/225 58/63/226 78/85/227 77/84/228
f 58/63/229 59/64/230 79/86/231 78/85/232
f 59/64/233 60/65/234 80/87/235 79/86/236
f 60/66/237 41/46/238 61/68/239 80/88/240
f 61/89/241 62/90/242 81/91/243
f 62/90/244 63/92/245 81/91/246
f 63/92/247 64/93/248 81/91/249
f 64/93/250 65/94/251 81/91/252
f 65/94/253 66/95/254 81/91/255
f 66/95/256 67/96/257 81/91/258
f 67/96/259 68/97/260 81/91/261
f 68/97/262 69/98/263 81/91/264
f 69/98/265 70/99/266 81/91/267
f 70/99/268 71/100/269 81/91/270
f 71/100/271 72/101/272 81/91/273
f 72/101/274 73/102/275 81/91/276
f 73/102/277 74/103/278 81/91/279
f 74/103/280 75/104/281 81/91/282
f 75/104/283 76/105/284 81/91/285
f 76/105/286 77/106/287 81/91/288
f 77/106/289 78/107/290 81/91/291
f 78/107/292 79/108/293 81/91/294
f 79/108/295 80/109/296 81/91/297
f 80/109/298 61/89/299 81/91/300
